<?xml version="1.0" encoding="UTF-8"?>
<svg xmlns="http://www.w3.org/2000/svg" xmlns:xlink="http://www.w3.org/1999/xlink" width="40.648pt" height="40.648pt" viewBox="0 0 40.648 40.648" version="1.1">
<defs>
<clipPath id="clip1">
  <path d="M 30 0 L 40.648438 0 L 40.648438 11 L 30 11 Z M 30 0 "/>
</clipPath>
<clipPath id="clip2">
  <path d="M 24 0 L 40.648438 0 L 40.648438 16 L 24 16 Z M 24 0 "/>
</clipPath>
<clipPath id="clip3">
  <path d="M 0 30 L 11 30 L 11 40.648438 L 0 40.648438 Z M 0 30 "/>
</clipPath>
<clipPath id="clip4">
  <path d="M 30 30 L 40.648438 30 L 40.648438 40.648438 L 30 40.648438 Z M 30 30 "/>
</clipPath>
<clipPath id="clip5">
  <path d="M 24 24 L 40.648438 24 L 40.648438 40.648438 L 24 40.648438 Z M 24 24 "/>
</clipPath>
</defs>
<g id="surface1">
<path style="fill-rule:nonzero;fill:rgb(25%,25%,100%);fill-opacity:1;stroke-width:0.3985;stroke-linecap:butt;stroke-linejoin:miter;stroke:rgb(25%,25%,100%);stroke-opacity:1;stroke-miterlimit:10;" d="M -4.981781 -4.983062 L 4.983062 -4.983062 L 4.983062 4.981781 L -4.981781 4.981781 Z M -4.981781 -4.983062 " transform="matrix(1,0,0,-1,5.181,5.181)"/>
<g clip-path="url(#clip1)" clip-rule="nonzero">
<path style=" stroke:none;fill-rule:nonzero;fill:rgb(25%,25%,100%);fill-opacity:1;" d="M 40.449219 5.179688 C 40.449219 2.429688 38.21875 0.199219 35.46875 0.199219 C 32.714844 0.199219 30.488281 2.429688 30.488281 5.179688 C 30.488281 7.933594 32.714844 10.164062 35.46875 10.164062 C 38.21875 10.164062 40.449219 7.933594 40.449219 5.179688 Z M 40.449219 5.179688 "/>
</g>
<g clip-path="url(#clip2)" clip-rule="nonzero">
<path style="fill:none;stroke-width:0.3985;stroke-linecap:butt;stroke-linejoin:miter;stroke:rgb(25%,25%,100%);stroke-opacity:1;stroke-miterlimit:10;" d="M 35.268219 0.0013125 C 35.268219 2.751313 33.03775 4.981781 30.28775 4.981781 C 27.533844 4.981781 25.307281 2.751313 25.307281 0.0013125 C 25.307281 -2.752594 27.533844 -4.983062 30.28775 -4.983062 C 33.03775 -4.983062 35.268219 -2.752594 35.268219 0.0013125 Z M 35.268219 0.0013125 " transform="matrix(1,0,0,-1,5.181,5.181)"/>
</g>
<g clip-path="url(#clip3)" clip-rule="nonzero">
<path style="fill-rule:nonzero;fill:rgb(100%,25%,25%);fill-opacity:1;stroke-width:0.3985;stroke-linecap:butt;stroke-linejoin:miter;stroke:rgb(100%,25%,25%);stroke-opacity:1;stroke-miterlimit:10;" d="M -4.981781 -35.268219 L 4.983062 -35.268219 L 4.983062 -25.307281 L -4.981781 -25.307281 Z M -4.981781 -35.268219 " transform="matrix(1,0,0,-1,5.181,5.181)"/>
</g>
<g clip-path="url(#clip4)" clip-rule="nonzero">
<path style=" stroke:none;fill-rule:nonzero;fill:rgb(100%,25%,25%);fill-opacity:1;" d="M 40.449219 35.46875 C 40.449219 32.714844 38.21875 30.488281 35.46875 30.488281 C 32.714844 30.488281 30.488281 32.714844 30.488281 35.46875 C 30.488281 38.21875 32.714844 40.449219 35.46875 40.449219 C 38.21875 40.449219 40.449219 38.21875 40.449219 35.46875 Z M 40.449219 35.46875 "/>
</g>
<g clip-path="url(#clip5)" clip-rule="nonzero">
<path style="fill:none;stroke-width:0.3985;stroke-linecap:butt;stroke-linejoin:miter;stroke:rgb(100%,25%,25%);stroke-opacity:1;stroke-miterlimit:10;" d="M 35.268219 -30.28775 C 35.268219 -27.533844 33.03775 -25.307281 30.28775 -25.307281 C 27.533844 -25.307281 25.307281 -27.533844 25.307281 -30.28775 C 25.307281 -33.03775 27.533844 -35.268219 30.28775 -35.268219 C 33.03775 -35.268219 35.268219 -33.03775 35.268219 -30.28775 Z M 35.268219 -30.28775 " transform="matrix(1,0,0,-1,5.181,5.181)"/>
</g>
</g>
</svg>
